<svg width="151" height="151" viewBox="0 0 151 151" fill="none" xmlns="http://www.w3.org/2000/svg">
<path d="M14.6602 26.3L41.8094 40.1028C43.4452 40.9344 45.3785 40.941 47.0198 40.1203L75.6602 25.8" stroke="white" stroke-width="4" stroke-miterlimit="10" stroke-linecap="round" stroke-linejoin="round"/>
<path d="M75.6602 29.3764C75.6602 27.1845 74.4218 25.1808 72.4614 24.2006L46.9981 11.4689C45.369 10.6544 43.4514 10.6544 41.8223 11.4689L16.359 24.2006C14.3986 25.1808 13.1602 27.1845 13.1602 29.3764V62.8486C13.1602 65.0405 14.3986 67.0442 16.359 68.0244L41.8223 80.7561C43.4514 81.5706 45.369 81.5706 46.9981 80.7561L72.4614 68.0244C74.4218 67.0442 75.6602 65.0405 75.6602 62.8486V29.3764Z" stroke="white" stroke-width="4" stroke-miterlimit="10" stroke-linecap="round" stroke-linejoin="round"/>
<path d="M44.4102 41.425V82.05" stroke="white" stroke-width="4" stroke-miterlimit="10" stroke-linecap="round" stroke-linejoin="round"/>
<path d="M75.6602 25.8L104.344 40.142C105.961 40.9504 107.862 40.9568 109.485 40.1593L136.66 26.8" stroke="white" stroke-width="4" stroke-miterlimit="10" stroke-linecap="round" stroke-linejoin="round"/>
<path d="M138.16 29.3764C138.16 27.1845 136.922 25.1808 134.961 24.2006L109.498 11.4689C107.869 10.6544 105.951 10.6544 104.322 11.4689L78.859 24.2006C76.8986 25.1808 75.6602 27.1845 75.6602 29.3764V62.8486C75.6602 65.0405 76.8986 67.0442 78.859 68.0244L104.322 80.7561C105.951 81.5706 107.869 81.5706 109.498 80.7561L134.961 68.0244C136.922 67.0442 138.16 65.0405 138.16 62.8486V29.3764Z" stroke="white" stroke-width="4" stroke-miterlimit="10" stroke-linecap="round" stroke-linejoin="round"/>
<path d="M106.91 41.425V82.05" stroke="white" stroke-width="4" stroke-miterlimit="10" stroke-linecap="round" stroke-linejoin="round"/>
<path d="M44.4102 82.05L73.0723 96.3811C74.7014 97.1956 76.619 97.1956 78.2481 96.3811L106.91 82.05" stroke="white" stroke-width="4" stroke-miterlimit="10" stroke-linecap="round" stroke-linejoin="round"/>
<path d="M75.6602 97.675V137.3" stroke="white" stroke-width="4" stroke-miterlimit="10" stroke-linecap="round" stroke-linejoin="round"/>
<path d="M106.91 85.6265C106.91 83.4346 105.672 81.4309 103.711 80.4507L78.2481 67.719C76.619 66.9045 74.7014 66.9045 73.0723 67.719L47.609 80.4507C45.6486 81.4309 44.4102 83.4346 44.4102 85.6265V119.099C44.4102 121.29 45.6486 123.294 47.609 124.274L73.0723 137.006C74.7014 137.821 76.619 137.821 78.2481 137.006L103.711 124.274C105.672 123.294 106.91 121.29 106.91 119.099V85.6265Z" stroke="white" stroke-width="4" stroke-miterlimit="10" stroke-linecap="round" stroke-linejoin="round"/>
</svg>
