<svg width="151" height="151" viewBox="0 0 151 151" fill="none" xmlns="http://www.w3.org/2000/svg">
<path d="M25.3149 82.05V32.0501C25.3149 18.2438 36.5087 7.05005 50.315 7.05005C64.1213 7.05005 75.315 18.2438 75.315 32.0501V119.55C75.315 133.357 86.5088 144.55 100.315 144.55C114.121 144.55 125.315 133.357 125.315 119.55V69.5501" stroke="white" stroke-width="4.83871" stroke-miterlimit="10" stroke-linecap="round" stroke-linejoin="round"/>
<path d="M125.314 44.55C135.671 44.55 144.064 36.1553 144.064 25.8C144.064 15.4447 135.671 7.05005 125.314 7.05005C114.96 7.05005 106.565 15.4447 106.565 25.8C106.565 36.1553 114.96 44.55 125.314 44.55Z" stroke="white" stroke-width="4.83871" stroke-miterlimit="10" stroke-linecap="round" stroke-linejoin="round"/>
<path d="M25.3149 144.55C35.6702 144.55 44.0649 136.156 44.0649 125.8C44.0649 115.445 35.6702 107.05 25.3149 107.05C14.9596 107.05 6.56494 115.445 6.56494 125.8C6.56494 136.156 14.9596 144.55 25.3149 144.55Z" stroke="white" stroke-width="4.83871" stroke-miterlimit="10" stroke-linecap="round" stroke-linejoin="round"/>
</svg>
