<svg width="24" height="24" viewBox="0 0 24 24" fill="none" xmlns="http://www.w3.org/2000/svg">
<path d="M9.70639 15.163C9.56969 15.1631 9.43606 15.1226 9.32237 15.0467C9.20867 14.9708 9.12002 14.8629 9.06764 14.7367C9.01526 14.6105 9.00151 14.4715 9.0281 14.3373C9.05468 14.2032 9.12041 14.0802 9.21701 13.9834L13.0794 10.1219H10.8124C10.629 10.1219 10.4532 10.0491 10.3235 9.91942C10.194 9.78982 10.1211 9.61405 10.1211 9.43071C10.1211 9.24739 10.194 9.07158 10.3235 8.94194C10.4532 8.81232 10.629 8.73951 10.8124 8.73951L14.7503 8.7312H14.7558C14.7922 8.73164 14.8286 8.73442 14.8646 8.73951H14.9006C14.9442 8.74883 14.9867 8.7624 15.0277 8.78005C15.0947 8.80898 15.1569 8.84816 15.2119 8.89618C15.2341 8.91588 15.255 8.9368 15.2746 8.95884C15.3228 9.01359 15.3617 9.07584 15.3898 9.14316C15.405 9.18008 15.4176 9.21793 15.4277 9.25651V9.26112C15.4359 9.30214 15.4408 9.34374 15.4423 9.38554V9.4095L15.436 13.3503C15.4357 13.5334 15.3628 13.709 15.2332 13.8384C15.1036 13.9678 14.928 14.0405 14.7448 14.0405C14.654 14.0405 14.564 14.0227 14.4801 13.9878C14.3962 13.9531 14.3201 13.902 14.256 13.8377C14.1919 13.7734 14.1411 13.6971 14.1065 13.6132C14.0719 13.5292 14.0543 13.4392 14.0546 13.3484V11.0776L10.192 14.9391C10.1303 15.0071 10.0554 15.062 9.97197 15.1004C9.88854 15.1388 9.79821 15.1602 9.70639 15.163Z" fill="white"/>
<path d="M12.2309 20.9353C10.4538 20.9352 8.71664 20.4082 7.23906 19.4208C5.76149 18.4334 4.60987 17.0301 3.92982 15.3883C3.24976 13.7464 3.07181 11.9398 3.41848 10.1968C3.76514 8.45388 4.62084 6.85286 5.87739 5.5962C6.92225 4.55124 8.20874 3.78011 9.62282 3.3511C11.0369 2.9221 12.535 2.84848 13.9843 3.13674C15.4337 3.425 16.7896 4.06626 17.9319 5.00372C19.0741 5.94117 19.9676 7.1459 20.5331 8.51114C21.0985 9.87638 21.3187 11.3601 21.1738 12.8307C21.0289 14.3012 20.5236 15.7135 19.7025 16.9421C18.8815 18.1708 17.7701 19.178 16.4669 19.8745C15.1635 20.571 13.7086 20.9354 12.2309 20.9353ZM12.2309 4.34651C11.2321 4.34383 10.2427 4.53933 9.31989 4.92169C8.39714 5.30405 7.55941 5.86566 6.85521 6.57402C5.61198 7.81777 4.83846 9.4541 4.66641 11.2042C4.49437 12.9543 4.93448 14.71 5.91173 16.1721C6.88899 17.634 8.34294 18.712 10.0259 19.2223C11.7088 19.7324 13.5166 19.6434 15.1412 18.9703C16.7658 18.297 18.1067 17.0814 18.9355 15.5304C19.7643 13.9793 20.0297 12.1889 19.6865 10.4643C19.3432 8.73949 18.4126 7.1871 17.0531 6.07158C15.6936 4.95605 13.9894 4.34641 12.2309 4.34651Z" fill="white"/>
</svg>
