<svg width="73" height="16" viewBox="0 0 73 16" fill="none" xmlns="http://www.w3.org/2000/svg">
<g clip-path="url(#clip0_1_515)">
<path d="M12.4684 0.60918C10.5423 0.633796 6.52381 0.713796 5.27458 1.0338C4.35766 1.27995 3.68073 2.01841 3.43458 2.87995C3.00996 4.54149 3.01612 7.9938 3.01612 7.9938C3.01612 7.9938 3.00996 11.4461 3.43458 13.1076C3.67458 14.0307 4.41304 14.7076 5.27458 14.9538C6.92996 15.3846 13.5207 15.3723 13.5207 15.3723C13.5207 15.3723 20.1054 15.3784 21.7669 14.9538C22.69 14.7076 23.3607 13.9692 23.6069 13.1076C24.0315 11.4461 24.0253 7.9938 24.0253 7.9938C24.0253 7.9938 24.093 4.54149 23.6069 2.87995C23.3607 1.95687 22.6284 1.27995 21.7669 1.0338C20.1177 0.603026 13.5269 0.60918 13.5269 0.60918C13.5269 0.60918 13.1146 0.603027 12.4746 0.60918H12.4684ZM56.9054 1.16303V14.2584H58.6161L58.8069 13.4153H58.8623C59.0469 13.723 59.2992 13.9569 59.6069 14.1415C59.9146 14.3261 60.2715 14.3876 60.6407 14.3876C61.3177 14.3876 61.8653 14.0861 62.173 13.4092C62.4807 12.7323 62.6715 11.7476 62.6715 10.3938V8.91687C62.6715 7.93226 62.6038 7.13226 62.4807 6.51687C62.3577 5.96918 62.173 5.53841 61.8653 5.23072C61.5577 4.98457 61.1884 4.86764 60.6961 4.86764C60.333 4.86764 59.97 4.98456 59.6623 5.16918C59.3607 5.3538 59.0407 5.66149 58.9177 6.03072V1.16918H56.8992L56.9054 1.16303ZM26.1423 1.64303L28.5423 10.1969L28.653 14.3261H30.69V10.1969L33.0715 1.64303H30.9977L30.1361 5.5261C29.89 6.68918 29.6992 7.48918 29.6377 7.98149H29.5823C29.4592 7.30457 29.2684 6.50456 29.0838 5.5261L28.2407 1.64303H26.1484H26.1423ZM44.3515 1.64303V3.31072H46.4438V14.3261H48.4623V3.31072H50.5546C50.5546 3.31072 50.5546 1.64303 50.4992 1.64303H44.3515ZM11.4346 4.7938L16.9115 7.98149L11.4346 11.1138V4.78764V4.7938ZM66.45 4.84918C65.4038 4.84918 64.6715 5.21226 64.2407 5.82764C63.8161 6.43687 63.6315 7.42764 63.6315 8.84303V10.4369C63.6315 11.7907 63.8161 12.8369 64.2407 13.4523C64.6715 14.1292 65.3484 14.4307 66.3946 14.4307C67.2561 14.4307 67.8592 14.2461 68.3515 13.8153C68.7823 13.3846 69.0223 12.7753 69.0223 11.9138V11.6061L67.2377 11.4769C67.2377 12.0923 67.1884 12.4615 67.0654 12.7076C67.0038 12.9538 66.7577 13.0892 66.45 13.0892C66.2654 13.0892 66.0746 13.0215 65.9515 12.8984C65.8284 12.7138 65.7669 12.5353 65.7054 12.2276C65.6438 11.92 65.65 11.483 65.65 10.8676V10.3876L69.1638 10.3323V8.71995C69.1638 7.73533 69.1023 7.00918 68.9177 6.45533C68.7946 5.90764 68.4807 5.47687 68.1115 5.23072C67.6807 4.98457 67.2007 4.86764 66.4623 4.86764L66.45 4.84918ZM35.3792 4.90456C34.7084 4.90456 34.1423 5.01533 33.7115 5.32303C33.2807 5.56918 32.973 6.01226 32.7946 6.62764C32.61 7.24303 32.4869 8.02457 32.4869 9.00918V10.3692C32.4869 11.2923 32.5484 12.0799 32.733 12.6953C32.8561 13.2492 33.1638 13.6923 33.5946 14C34.0192 14.3076 34.6469 14.4184 35.3238 14.48C36.0561 14.48 36.6038 14.3076 37.0346 14.0615C37.4592 13.8153 37.7054 13.3907 37.9515 12.7753C38.1915 12.16 38.253 11.36 38.253 10.3753V9.01533C38.253 8.03072 38.13 7.24918 37.9515 6.6338C37.7669 6.0861 37.4592 5.63687 37.0346 5.32918C36.6038 5.02149 36.0623 4.91072 35.3853 4.91072L35.3792 4.90456ZM42.8746 4.95995V12.283C42.813 12.4676 42.6961 12.5784 42.5115 12.7015C42.3884 12.8246 42.1977 12.8923 42.013 12.8923C41.8284 12.8923 41.6561 12.8307 41.5946 12.6461C41.533 12.4615 41.4838 12.2153 41.4838 11.7846V5.02149H39.3915V11.92C39.3915 12.7815 39.5023 13.3907 39.81 13.8215C40.1115 14.2523 40.5546 14.4369 41.17 14.4369C42.0315 14.4369 42.6961 14.0123 43.1269 13.1507H43.1823L43.373 14.2461H44.9669V5.02149C44.9669 5.02149 42.8746 5.02149 42.8746 4.9661V4.95995ZM53.5269 4.95995V12.283C53.4654 12.4676 53.3484 12.5784 53.1638 12.7015C53.0407 12.8246 52.85 12.8923 52.6654 12.8923C52.4807 12.8923 52.3084 12.8307 52.2469 12.6461C52.1854 12.4615 52.1177 12.2153 52.1177 11.7846V5.02149H50.0254V11.92C50.0254 12.7815 50.1546 13.3907 50.4623 13.8215C50.77 14.2523 51.1884 14.4369 51.8038 14.4369C52.6592 14.4369 53.3484 14.0123 53.7792 13.1507H53.8346L54.0069 14.2461H55.6192V5.02149C55.6192 5.02149 53.5269 5.02149 53.5269 4.9661V4.95995ZM66.3884 6.2461C66.6346 6.2461 66.7454 6.3138 66.8684 6.43687C66.9915 6.62149 67.053 6.79995 67.1146 7.10764C67.1761 7.41533 67.17 7.85226 67.17 8.46764V9.13841H65.6315V8.46764C65.6315 7.85226 65.6315 7.41533 65.6869 7.10764C65.6869 6.86149 65.7546 6.61533 65.8777 6.49226C66.0007 6.30764 66.1915 6.2461 66.3761 6.2461H66.3884ZM35.3177 6.31995C35.6254 6.31995 35.81 6.43072 35.933 6.73841C36.05 7.0461 36.1054 7.53841 36.1054 8.21533V11.0953C36.1054 11.7723 36.0561 12.2646 35.933 12.5723C35.81 12.88 35.6254 12.9907 35.3177 12.9907C35.01 12.9907 34.8315 12.88 34.7084 12.5723C34.5853 12.2646 34.5177 11.7723 34.5177 11.0953V8.21533C34.5177 7.53841 34.5853 7.0461 34.7084 6.73841C34.8315 6.43072 35.01 6.31995 35.3177 6.31995ZM59.7361 6.37533C59.9207 6.37533 60.1115 6.43687 60.2346 6.62149C60.3577 6.8061 60.4007 7.0338 60.4623 7.46457C60.5238 7.8338 60.5361 8.3938 60.5361 9.13226L60.5915 10.3015C60.5915 10.9784 60.5915 11.5261 60.5361 11.8953C60.4746 12.2646 60.4192 12.56 60.2346 12.683C60.1115 12.8676 59.9269 12.9292 59.6807 12.9292C59.4961 12.9292 59.3669 12.8799 59.1823 12.8184C59.0592 12.7569 58.9423 12.6399 58.8192 12.4553V7.22457C58.8807 6.97841 58.9977 6.7938 59.1823 6.60918C59.3669 6.42456 59.5515 6.36303 59.7361 6.36303V6.37533Z" fill="white" stroke="black" stroke-opacity="0.15" stroke-width="1.23077"/>
<path d="M12.4684 0.60918C10.5423 0.633796 6.52381 0.713796 5.27458 1.0338C4.35766 1.27995 3.68073 2.01841 3.43458 2.87995C3.00996 4.54149 3.01612 7.9938 3.01612 7.9938C3.01612 7.9938 3.00996 11.4461 3.43458 13.1076C3.67458 14.0307 4.41304 14.7076 5.27458 14.9538C6.92996 15.3846 13.5207 15.3723 13.5207 15.3723C13.5207 15.3723 20.1054 15.3784 21.7669 14.9538C22.69 14.7076 23.3607 13.9692 23.6069 13.1076C24.0315 11.4461 24.0253 7.9938 24.0253 7.9938C24.0253 7.9938 24.093 4.54149 23.6069 2.87995C23.3607 1.95687 22.6284 1.27995 21.7669 1.0338C20.1177 0.603026 13.5269 0.60918 13.5269 0.60918C13.5269 0.60918 13.1146 0.603027 12.4746 0.60918H12.4684ZM56.9054 1.16303V14.2584H58.6161L58.8069 13.4153H58.8623C59.0469 13.723 59.2992 13.9569 59.6069 14.1415C59.9146 14.3261 60.2715 14.3876 60.6407 14.3876C61.3177 14.3876 61.8653 14.0861 62.173 13.4092C62.4807 12.7323 62.6715 11.7476 62.6715 10.3938V8.91687C62.6715 7.93226 62.6038 7.13226 62.4807 6.51687C62.3577 5.96918 62.173 5.53841 61.8653 5.23072C61.5577 4.98457 61.1884 4.86764 60.6961 4.86764C60.333 4.86764 59.97 4.98456 59.6623 5.16918C59.3607 5.3538 59.0407 5.66149 58.9177 6.03072V1.16918H56.8992L56.9054 1.16303ZM26.1423 1.64303L28.5423 10.1969L28.653 14.3261H30.69V10.1969L33.0715 1.64303H30.9977L30.1361 5.5261C29.89 6.68918 29.6992 7.48918 29.6377 7.98149H29.5823C29.4592 7.30457 29.2684 6.50456 29.0838 5.5261L28.2407 1.64303H26.1484H26.1423ZM44.3515 1.64303V3.31072H46.4438V14.3261H48.4623V3.31072H50.5546C50.5546 3.31072 50.5546 1.64303 50.4992 1.64303H44.3515ZM11.4346 4.7938L16.9115 7.98149L11.4346 11.1138V4.78764V4.7938ZM66.45 4.84918C65.4038 4.84918 64.6715 5.21226 64.2407 5.82764C63.8161 6.43687 63.6315 7.42764 63.6315 8.84303V10.4369C63.6315 11.7907 63.8161 12.8369 64.2407 13.4523C64.6715 14.1292 65.3484 14.4307 66.3946 14.4307C67.2561 14.4307 67.8592 14.2461 68.3515 13.8153C68.7823 13.3846 69.0223 12.7753 69.0223 11.9138V11.6061L67.2377 11.4769C67.2377 12.0923 67.1884 12.4615 67.0654 12.7076C67.0038 12.9538 66.7577 13.0892 66.45 13.0892C66.2654 13.0892 66.0746 13.0215 65.9515 12.8984C65.8284 12.7138 65.7669 12.5353 65.7054 12.2276C65.6438 11.92 65.65 11.483 65.65 10.8676V10.3876L69.1638 10.3323V8.71995C69.1638 7.73533 69.1023 7.00918 68.9177 6.45533C68.7946 5.90764 68.4807 5.47687 68.1115 5.23072C67.6807 4.98457 67.2007 4.86764 66.4623 4.86764L66.45 4.84918ZM35.3792 4.90456C34.7084 4.90456 34.1423 5.01533 33.7115 5.32303C33.2807 5.56918 32.973 6.01226 32.7946 6.62764C32.61 7.24303 32.4869 8.02457 32.4869 9.00918V10.3692C32.4869 11.2923 32.5484 12.0799 32.733 12.6953C32.8561 13.2492 33.1638 13.6923 33.5946 14C34.0192 14.3076 34.6469 14.4184 35.3238 14.48C36.0561 14.48 36.6038 14.3076 37.0346 14.0615C37.4592 13.8153 37.7054 13.3907 37.9515 12.7753C38.1915 12.16 38.253 11.36 38.253 10.3753V9.01533C38.253 8.03072 38.13 7.24918 37.9515 6.6338C37.7669 6.0861 37.4592 5.63687 37.0346 5.32918C36.6038 5.02149 36.0623 4.91072 35.3853 4.91072L35.3792 4.90456ZM42.8746 4.95995V12.283C42.813 12.4676 42.6961 12.5784 42.5115 12.7015C42.3884 12.8246 42.1977 12.8923 42.013 12.8923C41.8284 12.8923 41.6561 12.8307 41.5946 12.6461C41.533 12.4615 41.4838 12.2153 41.4838 11.7846V5.02149H39.3915V11.92C39.3915 12.7815 39.5023 13.3907 39.81 13.8215C40.1115 14.2523 40.5546 14.4369 41.17 14.4369C42.0315 14.4369 42.6961 14.0123 43.1269 13.1507H43.1823L43.373 14.2461H44.9669V5.02149C44.9669 5.02149 42.8746 5.02149 42.8746 4.9661V4.95995ZM53.5269 4.95995V12.283C53.4654 12.4676 53.3484 12.5784 53.1638 12.7015C53.0407 12.8246 52.85 12.8923 52.6654 12.8923C52.4807 12.8923 52.3084 12.8307 52.2469 12.6461C52.1854 12.4615 52.1177 12.2153 52.1177 11.7846V5.02149H50.0254V11.92C50.0254 12.7815 50.1546 13.3907 50.4623 13.8215C50.77 14.2523 51.1884 14.4369 51.8038 14.4369C52.6592 14.4369 53.3484 14.0123 53.7792 13.1507H53.8346L54.0069 14.2461H55.6192V5.02149C55.6192 5.02149 53.5269 5.02149 53.5269 4.9661V4.95995ZM66.3884 6.2461C66.6346 6.2461 66.7454 6.3138 66.8684 6.43687C66.9915 6.62149 67.053 6.79995 67.1146 7.10764C67.1761 7.41533 67.17 7.85226 67.17 8.46764V9.13841H65.6315V8.46764C65.6315 7.85226 65.6315 7.41533 65.6869 7.10764C65.6869 6.86149 65.7546 6.61533 65.8777 6.49226C66.0007 6.30764 66.1915 6.2461 66.3761 6.2461H66.3884ZM35.3177 6.31995C35.6254 6.31995 35.81 6.43072 35.933 6.73841C36.05 7.0461 36.1054 7.53841 36.1054 8.21533V11.0953C36.1054 11.7723 36.0561 12.2646 35.933 12.5723C35.81 12.88 35.6254 12.9907 35.3177 12.9907C35.01 12.9907 34.8315 12.88 34.7084 12.5723C34.5853 12.2646 34.5177 11.7723 34.5177 11.0953V8.21533C34.5177 7.53841 34.5853 7.0461 34.7084 6.73841C34.8315 6.43072 35.01 6.31995 35.3177 6.31995ZM59.7361 6.37533C59.9207 6.37533 60.1115 6.43687 60.2346 6.62149C60.3577 6.8061 60.4007 7.0338 60.4623 7.46457C60.5238 7.8338 60.5361 8.3938 60.5361 9.13226L60.5915 10.3015C60.5915 10.9784 60.5915 11.5261 60.5361 11.8953C60.4746 12.2646 60.4192 12.56 60.2346 12.683C60.1115 12.8676 59.9269 12.9292 59.6807 12.9292C59.4961 12.9292 59.3669 12.8799 59.1823 12.8184C59.0592 12.7569 58.9423 12.6399 58.8192 12.4553V7.22457C58.8807 6.97841 58.9977 6.7938 59.1823 6.60918C59.3669 6.42456 59.5515 6.36303 59.7361 6.36303V6.37533Z" fill="white"/>
</g>
<defs>
<clipPath id="clip0_1_515">
<rect width="72" height="16" fill="white" transform="translate(0.0500488)"/>
</clipPath>
</defs>
</svg>
