<svg width="37" height="36" viewBox="0 0 37 36" fill="none" xmlns="http://www.w3.org/2000/svg">
<path d="M20.7 14.19V9.73999L28.49 17.53L20.7 25.32V20.76C16.77 20.69 12.6 21.81 9.83997 24.76C9.29997 25.13 8.09997 27.29 8.61997 25.65C9.57997 21.32 12.3 17.18 16.48 15.38C17.81 14.78 19.24 14.4 20.69 14.19H20.7Z" fill="white" stroke="black" stroke-opacity="0.15" stroke-width="2"/>
<path d="M20.7 14.19V9.73999L28.49 17.53L20.7 25.32V20.76C16.77 20.69 12.6 21.81 9.83997 24.76C9.29997 25.13 8.09997 27.29 8.61997 25.65C9.57997 21.32 12.3 17.18 16.48 15.38C17.81 14.78 19.24 14.4 20.69 14.19H20.7Z" fill="white"/>
</svg>
